<?xml version="1.0" encoding="UTF-8" standalone="no"?>

<svg xmlns="http://www.w3.org/2000/svg"
     width="400px" height="400px"
     viewBox="0 0 400 400">
  <path id="Selection"
        fill="black" stroke="black" stroke-width="1"
        d="M 190.00,17.42
           C 209.38,15.06 241.50,20.63 260.00,27.14
             281.18,34.60 298.52,44.27 316.00,58.46
             373.79,105.34 397.12,185.37 374.26,256.00
             365.89,281.83 354.02,301.45 336.42,322.00
             322.95,337.73 299.80,355.31 281.00,364.22
             254.36,376.84 225.48,383.34 196.00,383.00
             196.00,383.00 186.00,382.09 186.00,382.09
             170.85,381.03 159.54,378.68 145.00,374.42
             129.36,369.85 114.67,362.67 101.00,353.86
             20.76,302.12 -6.33,196.95 38.89,113.00
             61.15,71.66 99.33,40.06 144.00,25.74
             155.30,22.12 167.23,19.73 179.00,18.29
             179.00,18.29 190.00,17.42 190.00,17.42 Z
           M 189.00,31.14
           C 189.00,31.14 178.00,32.29 178.00,32.29
             170.79,33.17 157.92,35.88 151.00,38.02
             106.75,51.73 68.56,83.08 48.26,125.00
             10.77,202.41 35.46,293.34 107.00,341.33
             120.06,350.09 135.87,357.52 151.00,361.86
             164.57,365.75 178.83,368.83 193.00,369.00
             223.45,369.35 247.34,365.14 275.00,351.74
             291.90,343.56 310.52,329.80 323.16,315.99
             332.92,305.33 341.79,293.73 348.69,281.00
             375.81,230.97 375.81,169.03 348.69,119.00
             339.28,101.63 326.44,86.45 312.00,73.09
             299.21,61.25 280.21,49.88 264.00,43.40
             247.73,36.89 224.52,31.08 207.00,31.14
             207.00,31.14 189.00,31.14 189.00,31.14 Z
           M 145.00,140.47
           C 167.56,137.82 176.43,167.39 158.00,177.91
             154.33,180.01 150.11,180.10 146.00,179.98
             134.43,179.66 127.54,170.05 128.04,159.00
             128.49,149.10 135.81,142.65 145.00,140.47 Z
           M 250.00,140.50
           C 277.05,138.70 279.81,176.94 255.00,180.20
             238.24,182.41 225.93,164.55 234.99,150.00
             238.82,143.85 243.23,141.90 250.00,140.50 Z
           M 271.09,238.75
           C 277.82,237.43 284.30,241.74 280.69,249.00
             277.84,254.72 269.45,261.30 264.00,264.55
             248.25,273.95 221.32,279.97 203.00,280.00
             203.00,280.00 186.00,280.00 186.00,280.00
             183.44,279.98 180.40,280.16 178.37,278.40
             175.42,275.96 175.17,269.42 178.37,267.17
             180.36,265.85 185.45,265.91 188.00,265.58
             188.00,265.58 220.00,263.20 220.00,263.20
             232.09,260.93 244.35,258.47 255.00,251.93
             263.03,247.01 265.93,241.71 271.09,238.75 Z" />
</svg>
