<?xml version="1.0" encoding="UTF-8" standalone="no"?>
<!DOCTYPE svg PUBLIC "-//W3C//DTD SVG 20010904//EN"
              "http://www.w3.org/TR/2001/REC-SVG-20010904/DTD/svg10.dtd">

<svg xmlns="http://www.w3.org/2000/svg"
     width="452" height="524"
     viewBox="0 0 452 524">
  <path id="Selection #2"
        fill="#00A3E0" stroke="black" stroke-width="0.5"
        d="M 237.00,416.00
           C 236.81,424.88 234.15,433.63 231.33,442.00
             214.49,492.03 165.70,521.92 114.00,522.00
             114.00,522.00 30.00,522.00 30.00,522.00
             23.45,522.00 8.06,523.93 4.31,517.79
             2.78,515.27 3.01,511.85 3.00,509.00
             3.00,509.00 3.00,120.00 3.00,120.00
             3.00,120.00 3.00,30.00 3.00,30.00
             3.00,23.58 1.09,6.50 7.13,3.02
             9.25,1.80 12.60,2.00 15.00,2.00
             15.00,2.00 63.00,2.00 63.00,2.00
             72.91,2.14 73.96,6.00 74.00,15.00
             74.00,15.00 74.00,68.00 74.00,68.00
             74.00,75.76 73.29,88.96 75.00,96.00
             81.30,91.27 89.55,78.77 94.63,72.00
             94.63,72.00 128.63,27.00 128.63,27.00
             133.92,19.94 142.88,5.60 151.00,2.85
             153.88,1.88 157.00,2.00 160.00,2.00
             160.00,2.00 220.00,2.00 220.00,2.00
             224.84,2.01 230.98,1.99 229.53,9.00
             228.86,12.21 225.08,16.40 223.00,19.00
             223.00,19.00 208.60,37.00 208.60,37.00
             208.60,37.00 156.60,102.00 156.60,102.00
             156.60,102.00 139.00,124.00 139.00,124.00
             136.49,127.19 132.70,131.61 133.52,136.00
             134.17,139.47 139.04,144.24 141.42,147.00
             141.42,147.00 164.00,171.00 164.00,171.00
             164.00,171.00 175.04,183.00 175.04,183.00
             175.04,183.00 238.00,250.00 238.00,250.00
             238.00,250.00 238.00,60.00 238.00,60.00
             238.00,60.00 238.00,23.00 238.00,23.00
             238.00,18.97 237.42,9.27 239.17,6.06
             241.61,1.61 245.63,2.01 250.00,2.00
             250.00,2.00 393.00,2.00 393.00,2.00
             393.00,2.00 424.00,2.00 424.00,2.00
             426.92,2.01 430.33,1.71 432.77,3.60
             436.36,6.37 435.99,10.96 436.00,15.00
             436.00,15.00 436.00,49.00 436.00,49.00
             436.00,53.03 436.68,60.58 434.26,63.77
             431.53,67.39 427.03,66.99 423.00,67.00
             423.00,67.00 336.00,67.00 336.00,67.00
             325.39,67.00 309.29,63.74 309.00,79.00
             308.88,85.97 307.34,96.17 316.00,98.86
             317.84,99.08 321.03,99.00 323.00,98.86
             323.00,98.86 397.00,98.86 397.00,98.86
             404.26,99.00 418.02,96.85 421.26,105.02
             422.13,107.21 422.00,110.62 422.00,113.00
             422.00,113.00 422.00,152.00 422.00,152.00
             421.99,155.61 422.23,159.70 419.99,162.77
             417.31,166.47 413.05,165.99 409.00,166.00
             409.00,166.00 324.00,166.00 324.00,166.00
             313.06,166.02 309.02,168.57 309.00,180.00
             309.00,180.00 309.00,235.00 309.00,235.00
             309.00,244.25 310.78,253.32 305.00,261.00
             305.00,261.00 350.00,261.00 350.00,261.00
             350.00,261.00 362.00,262.04 362.00,262.04
             362.00,262.04 370.00,262.04 370.00,262.04
             399.11,264.95 426.79,277.62 437.14,307.00
             439.29,313.11 440.92,321.52 441.00,328.00
             441.19,344.54 439.98,352.26 429.84,366.00
             426.12,371.05 423.65,373.44 419.01,377.58
             417.28,379.11 414.25,381.32 414.62,383.96
             414.95,386.29 418.22,388.41 420.00,389.65
             425.86,393.75 427.69,394.54 432.96,400.00
             442.85,410.27 448.93,424.73 449.00,439.00
             449.07,453.26 449.05,464.43 443.55,478.00
             431.69,507.27 405.51,518.34 376.00,521.07
             376.00,521.07 366.00,522.00 366.00,522.00
             366.00,522.00 268.00,522.00 268.00,522.00
             263.48,522.00 247.22,522.52 244.02,521.26
             241.89,520.43 240.25,518.97 239.17,516.96
             237.79,514.37 238.00,510.87 238.00,508.00
             238.00,508.00 238.00,447.00 238.00,447.00
             238.00,439.38 238.84,422.48 237.00,416.00 Z
           M 238.00,262.00
           C 238.00,262.00 168.00,262.00 168.00,262.00
             150.21,261.97 147.95,253.99 136.92,242.00
             136.92,242.00 96.58,197.00 96.58,197.00
             91.52,191.17 81.88,178.46 75.00,176.00
             73.30,181.97 74.00,190.62 74.00,197.00
             74.00,197.00 74.00,235.00 74.00,235.00
             74.00,245.86 75.77,251.39 70.00,261.00
             108.77,261.00 142.64,258.88 178.00,278.31
             185.62,282.50 192.39,287.99 199.00,293.59
             205.20,298.85 213.81,309.14 218.30,316.00
             224.07,324.81 229.48,335.91 232.57,346.00
             232.57,346.00 238.00,367.00 238.00,367.00
             238.00,367.00 238.00,262.00 238.00,262.00 Z
           M 315.02,327.22
           C 309.42,329.76 309.08,332.32 309.00,338.00
             308.88,347.34 306.06,359.76 319.00,360.00
             319.00,360.00 348.00,360.00 348.00,360.00
             351.56,359.99 354.83,360.27 357.98,358.26
             367.45,352.23 368.76,337.70 359.91,330.56
             356.05,327.45 352.73,327.06 348.00,327.22
             348.00,327.22 315.02,327.22 315.02,327.22 Z
           M 79.02,328.60
           C 76.59,329.96 75.67,330.35 74.31,333.02
             72.18,337.21 73.00,353.46 73.00,359.00
             73.00,359.00 73.00,441.00 73.00,441.00
             73.02,452.52 73.89,455.98 86.00,456.00
             86.00,456.00 113.00,456.00 113.00,456.00
             126.81,455.98 141.94,451.96 151.91,441.91
             166.84,426.86 168.23,405.85 168.00,386.00
             167.83,371.82 163.87,357.32 155.10,346.01
             141.22,328.13 120.36,328.00 100.00,328.00
             94.22,328.00 84.27,327.47 79.02,328.60 Z
           M 316.00,419.20
           C 313.83,420.11 312.27,420.48 310.74,422.39
             308.00,425.80 308.99,439.22 309.00,444.00
             309.01,446.96 308.73,450.35 310.60,452.85
             312.81,455.82 315.64,455.93 319.00,456.00
             319.00,456.00 354.00,456.00 354.00,456.00
             359.06,455.99 362.57,456.16 366.98,453.15
             378.44,445.34 376.58,430.24 365.99,422.65
             361.42,419.38 357.37,419.03 352.00,419.20
             352.00,419.20 316.00,419.20 316.00,419.20 Z" />
</svg>
