<?xml version="1.0" standalone="no"?>
<!DOCTYPE svg PUBLIC "-//W3C//DTD SVG 20010904//EN"
 "http://www.w3.org/TR/2001/REC-SVG-20010904/DTD/svg10.dtd">
<svg version="1.0" xmlns="http://www.w3.org/2000/svg"
 width="1118.000000pt" height="1118.000000pt" viewBox="0 0 1118.000000 1118.000000"
 preserveAspectRatio="xMidYMid meet">
<metadata>
Created by potrace 1.14, written by Peter Selinger 2001-2017
</metadata>
<g transform="translate(0.000000,1118.000000) scale(0.100000,-0.100000)"
fill="#000000" stroke="none">
<path d="M1030 11128 c-41 -3 -84 -8 -94 -11 -24 -5 -76 -65 -76 -87 0 -9 -4
-20 -9 -26 -5 -5 -13 -29 -16 -54 -8 -49 -8 -10722 -1 -10755 2 -11 5 -20 6
-20 1 0 3 -8 5 -19 4 -19 63 -86 74 -84 3 1 18 -4 32 -10 15 -6 47 -14 70 -18
56 -9 2230 -8 2364 1 55 4 116 9 135 11 19 3 51 7 70 9 19 2 46 6 60 10 14 3
41 8 60 11 68 9 100 15 170 34 25 7 52 13 60 15 30 6 275 88 295 98 11 6 25
12 32 13 6 1 50 20 96 42 46 22 94 43 106 47 11 3 21 11 21 17 0 6 3 9 6 5 3
-3 23 4 43 17 20 12 43 26 51 29 8 4 33 18 55 32 22 14 50 31 63 37 12 6 22
15 22 20 0 4 7 8 15 8 8 0 15 5 15 10 0 6 5 10 10 10 11 0 124 84 177 131 18
16 35 29 39 29 10 0 252 246 302 306 23 29 42 57 42 63 0 6 4 11 9 11 4 0 21
19 37 43 16 23 32 44 37 45 4 2 7 8 7 14 0 5 11 24 24 41 32 43 76 120 139
247 45 90 111 243 112 260 2 15 29 87 38 98 5 6 7 12 4 12 -3 0 2 24 12 52 10
29 19 56 20 61 0 4 1 8 2 10 1 3 6 24 24 97 20 81 26 116 27 158 0 38 9 35 15
-5 8 -51 8 -483 0 -483 -4 0 -3 -8 2 -18 5 -10 6 -24 1 -32 -4 -7 -5 -22 -1
-34 5 -11 5 -34 1 -52 -4 -18 -4 -38 1 -45 4 -7 4 -20 -1 -30 -5 -9 -7 -19 -4
-22 9 -9 10 -71 2 -90 -5 -10 -5 -17 1 -17 5 0 6 -14 1 -35 -4 -19 -5 -35 -1
-35 10 0 8 -31 -3 -48 -4 -6 -3 -12 1 -12 10 0 9 -83 -1 -99 -4 -6 -3 -11 2
-11 6 0 7 -14 2 -34 -4 -19 -4 -40 1 -47 4 -7 4 -20 -1 -30 -5 -9 -7 -19 -4
-22 9 -9 10 -71 2 -89 -5 -11 -5 -18 1 -18 5 0 6 -14 1 -35 -4 -19 -5 -35 -1
-35 10 0 8 -31 -3 -48 -4 -6 -3 -12 1 -12 10 0 9 -83 -1 -99 -4 -6 -3 -11 2
-11 6 0 7 -14 2 -34 -4 -19 -4 -40 1 -47 4 -7 4 -20 -1 -30 -5 -9 -7 -19 -4
-22 9 -9 10 -71 2 -89 -5 -10 -5 -18 0 -18 5 0 6 -17 2 -39 -4 -21 -3 -46 2
-54 5 -10 4 -18 -2 -22 -6 -4 -8 -11 -4 -16 3 -6 8 -30 10 -54 8 -100 74 -166
180 -181 65 -9 2528 -8 2624 1 41 4 95 9 120 11 86 8 186 20 233 29 69 13 84
16 117 21 19 3 37 9 40 13 3 3 18 7 33 8 26 2 170 45 237 71 14 5 28 10 32 11
10 3 177 87 213 109 107 62 273 205 350 302 50 63 75 99 75 109 0 6 4 11 9 11
5 0 14 13 21 30 7 16 16 30 21 30 5 0 8 3 7 8 0 4 19 50 44 102 57 120 99 243
102 298 0 12 4 22 8 22 5 0 7 3 6 8 -1 4 1 30 6 57 4 28 10 66 13 85 8 55 12
161 12 345 0 179 -2 219 -20 300 -5 28 -12 61 -15 74 -3 13 -9 31 -13 40 -5 9
-9 18 -8 21 2 23 -99 251 -115 258 -5 2 -8 8 -8 13 0 6 -5 15 -10 22 -6 7 -23
31 -38 54 -15 23 -41 57 -59 76 -17 19 -29 38 -26 41 4 3 2 6 -4 6 -6 0 -37
26 -69 59 -32 32 -113 96 -179 142 -195 136 -205 162 -100 262 22 22 65 63 96
92 66 61 168 185 223 268 41 63 115 206 121 234 2 10 8 30 13 44 6 15 13 44
17 66 3 21 8 50 11 63 3 14 6 50 8 80 1 31 5 61 10 68 4 7 2 12 -4 12 -6 0 -8
5 -5 10 8 14 10 145 1 158 -3 6 -2 13 4 17 6 4 7 11 4 17 -4 6 -8 30 -10 52
-2 43 -16 132 -27 176 -2 8 -7 29 -11 45 -33 139 -92 280 -173 407 -62 99
-210 268 -233 268 -6 0 -10 4 -10 8 0 13 -128 105 -220 159 -80 46 -261 129
-298 137 -9 1 -29 8 -43 14 -25 10 -97 31 -129 37 -8 2 -33 8 -55 13 -22 6
-58 14 -80 17 -22 4 -53 9 -70 11 -16 3 -41 7 -55 10 -25 5 -109 10 -295 18
-55 3 -122 8 -150 11 -27 3 -272 5 -542 6 -275 0 -493 4 -493 9 0 5 6 15 14
23 8 8 22 39 31 68 9 30 20 66 25 80 4 14 7 374 6 800 -1 718 2 872 21 902 4
7 8 18 10 26 2 16 74 84 81 76 3 -3 11 0 19 6 7 6 28 13 45 16 18 2 490 6
1048 8 558 1 1017 4 1020 5 8 4 24 7 42 8 30 3 86 61 105 110 16 43 18 91 18
603 l0 556 -30 48 c-30 49 -83 84 -150 101 -17 5 -492 9 -1057 9 -1139 2
-1070 -2 -1121 68 -38 52 -50 93 -51 183 -1 46 -5 84 -9 84 -5 0 -5 6 0 13 4
6 8 32 9 57 2 98 30 169 82 212 29 24 108 49 167 55 48 4 90 4 393 0 72 -1
132 2 132 6 0 5 5 5 12 1 16 -10 308 -11 308 -1 0 5 5 5 12 1 16 -10 308 -11
308 -1 0 4 8 4 18 -1 9 -4 96 -7 192 -5 96 1 182 2 190 3 40 0 136 0 145 0
185 -5 303 -5 316 2 9 4 20 4 23 0 11 -11 110 -8 118 3 5 7 8 7 8 0 0 -10 119
-12 136 -3 5 3 20 8 34 11 38 9 88 64 102 111 8 29 11 195 10 576 0 294 -2
542 -4 550 -16 66 -70 123 -130 136 -35 8 -3930 8 -3958 0 -49 -14 -86 -39
-105 -70 -22 -37 -24 -46 -28 -108 -1 -27 -5 -48 -9 -48 -4 0 -3 -11 2 -25 5
-14 6 -25 1 -25 -9 0 -8 -36 1 -46 4 -3 3 -17 -2 -30 -6 -14 -6 -26 0 -29 6
-4 7 -14 2 -23 -4 -9 -6 -30 -5 -47 2 -16 3 -36 3 -42 0 -7 0 -21 0 -30 0 -10
0 -34 -1 -53 0 -19 0 -41 0 -47 1 -7 1 -21 1 -30 0 -27 1 -55 3 -83 2 -14 -1
-33 -6 -42 -4 -10 -4 -18 2 -18 5 0 6 -14 1 -35 -4 -19 -5 -35 -1 -35 10 0 8
-31 -3 -48 -4 -6 -3 -12 1 -12 10 0 9 -83 -1 -99 -4 -6 -3 -11 2 -11 6 0 7
-14 2 -34 -4 -19 -4 -40 1 -47 4 -7 4 -20 0 -28 -5 -9 -5 -25 -1 -36 4 -11 4
-30 -1 -42 -5 -12 -5 -25 0 -27 9 -6 8 -36 -2 -53 -4 -6 -3 -14 2 -17 8 -6 6
-60 -4 -76 -3 -5 -1 -11 3 -14 10 -6 9 -36 -1 -53 -4 -6 -3 -14 2 -17 8 -6 6
-60 -4 -76 -3 -5 -1 -11 3 -14 10 -6 9 -36 -1 -53 -4 -6 -3 -14 2 -17 8 -6 6
-60 -4 -76 -3 -5 -1 -11 3 -14 10 -6 9 -36 -1 -53 -4 -6 -4 -14 1 -17 9 -5 7
-89 -2 -105 -4 -6 -3 -11 2 -11 6 0 7 -14 2 -35 -4 -19 -5 -35 -1 -35 10 0 8
-31 -3 -48 -4 -6 -3 -12 1 -12 10 0 9 -83 -1 -99 -4 -6 -3 -11 2 -11 6 0 7
-14 2 -34 -4 -19 -4 -40 1 -47 4 -7 4 -20 -1 -30 -5 -9 -7 -19 -4 -22 9 -9 10
-71 2 -89 -5 -11 -5 -18 1 -18 5 0 6 -14 1 -35 -4 -19 -5 -35 -1 -35 10 0 8
-31 -3 -48 -4 -6 -3 -12 1 -12 10 0 9 -83 -1 -99 -4 -6 -3 -11 2 -11 6 0 7
-14 2 -34 -4 -19 -4 -40 1 -47 4 -7 4 -20 -1 -30 -5 -9 -7 -19 -4 -22 9 -9 10
-71 2 -89 -5 -11 -5 -18 1 -18 5 0 6 -14 1 -35 -4 -19 -5 -35 -1 -35 10 0 8
-31 -3 -48 -4 -6 -3 -12 1 -12 10 0 9 -83 -1 -99 -4 -6 -3 -11 3 -11 7 0 7 -8
1 -25 -5 -13 -6 -27 -1 -29 9 -6 8 -36 -2 -53 -4 -6 -3 -14 2 -17 8 -6 6 -60
-4 -76 -3 -5 -1 -11 3 -14 10 -6 9 -36 -1 -53 -4 -6 -3 -14 2 -17 8 -6 6 -60
-4 -76 -3 -5 -1 -11 3 -14 10 -6 9 -36 -1 -53 -4 -6 -3 -14 2 -17 8 -6 6 -60
-4 -76 -3 -5 -1 -11 3 -14 10 -6 9 -36 -1 -53 -4 -6 -3 -14 1 -17 5 -3 8 -18
6 -33 -6 -46 -6 -125 -1 -183 2 -14 -1 -33 -6 -42 -4 -10 -4 -18 2 -18 5 0 6
-14 1 -35 -4 -19 -5 -35 -1 -35 10 0 8 -31 -3 -48 -4 -6 -3 -12 1 -12 10 0 9
-83 -1 -99 -4 -6 -3 -11 2 -11 6 0 7 -14 2 -34 -4 -19 -4 -40 1 -47 4 -7 4
-20 0 -28 -5 -9 -5 -25 -1 -36 4 -11 4 -34 0 -51 -4 -18 -4 -38 1 -45 4 -7 4
-20 -1 -30 -5 -9 -7 -19 -4 -22 9 -9 10 -71 2 -89 -5 -11 -5 -18 1 -18 5 0 6
-14 1 -35 -4 -19 -5 -35 -1 -35 10 0 8 -31 -3 -48 -4 -6 -3 -12 1 -12 10 0 9
-83 -1 -99 -4 -6 -3 -11 2 -11 6 0 7 -14 2 -34 -4 -19 -4 -40 1 -47 4 -7 4
-20 0 -28 -5 -9 -5 -25 -1 -36 4 -11 4 -34 0 -51 -4 -18 -4 -38 1 -45 4 -7 4
-20 -1 -30 -5 -9 -7 -19 -4 -21 9 -9 10 -78 2 -78 -5 0 -6 -6 -2 -12 8 -15
-74 69 -223 228 -56 60 -130 139 -165 175 -34 37 -106 113 -158 169 -52 56
-129 138 -170 181 -41 43 -99 104 -129 136 -29 32 -108 116 -175 187 -66 71
-138 147 -159 170 -22 23 -71 75 -110 117 -40 42 -110 118 -157 168 -47 51
-101 110 -120 130 -200 214 -264 282 -319 339 -58 62 -157 169 -245 267 -56
63 -89 136 -82 185 5 36 43 116 71 147 5 6 21 26 35 44 14 18 31 38 38 45 6 7
12 17 12 22 0 6 4 12 8 14 4 2 38 41 75 88 37 47 76 94 85 105 10 11 33 40 52
65 19 25 37 47 40 50 3 3 21 25 40 50 19 25 42 54 52 65 9 11 50 63 92 115 42
52 91 112 108 134 18 21 35 43 37 48 1 5 13 19 25 32 11 12 33 37 48 56 14 19
35 45 45 57 10 12 27 34 38 49 11 15 29 38 40 50 40 44 55 64 55 72 0 4 9 13
20 20 11 7 20 17 20 22 0 5 9 20 19 32 11 13 28 33 39 45 10 12 45 56 78 97
32 42 62 76 66 76 5 0 8 5 8 11 0 5 13 24 30 42 16 18 30 35 30 39 0 4 11 18
25 32 14 14 25 29 25 35 0 5 4 11 8 13 5 2 48 53 96 113 49 61 92 112 97 113
5 2 9 8 9 13 0 6 13 24 30 42 16 18 30 35 30 38 0 3 14 21 31 40 17 19 49 59
72 89 23 30 45 57 48 60 3 3 41 50 84 105 44 55 85 106 92 113 27 28 72 100
79 126 3 14 10 28 14 31 12 8 2 82 -15 109 -9 14 -31 28 -48 32 -18 4 -39 9
-47 11 -30 7 -1496 5 -1529 -2 -58 -13 -115 -43 -160 -84 -25 -23 -47 -41 -50
-41 -7 -1 -123 -143 -183 -225 -24 -33 -75 -103 -113 -155 -38 -52 -72 -97
-75 -100 -3 -3 -17 -21 -30 -40 -13 -19 -27 -37 -30 -40 -9 -8 -424 -559 -435
-578 -5 -9 -15 -21 -21 -27 -22 -21 -114 -145 -114 -154 0 -5 -4 -11 -8 -13
-5 -1 -28 -30 -52 -63 -200 -275 -369 -479 -384 -464 -17 16 -20 133 -23 949
-4 938 -3 920 -15 920 -4 0 -8 8 -8 18 0 10 -15 32 -32 49 -29 27 -45 34 -108
50 -28 7 -1084 8 -1160 1z m1412 -3754 c45 -27 191 -177 318 -329 41 -49 84
-99 95 -111 11 -12 49 -54 85 -94 36 -40 81 -90 100 -110 19 -21 58 -65 86
-97 29 -32 63 -70 75 -84 13 -14 53 -59 89 -99 68 -76 111 -124 157 -175 16
-16 62 -68 103 -115 41 -46 82 -91 90 -100 27 -28 135 -152 150 -172 74 -96
196 -218 220 -218 5 0 10 -4 10 -10 0 -5 6 -10 13 -10 7 0 19 -6 26 -12 6 -7
15 -13 19 -14 4 0 27 -6 52 -14 76 -23 141 -31 240 -30 36 1 74 1 85 1 50 0
162 0 185 1 14 0 52 0 85 -1 33 0 68 0 78 0 9 0 78 0 152 0 74 0 150 0 168 0
50 1 360 1 377 0 8 0 85 0 171 0 126 -1 159 -4 169 -16 9 -11 9 -15 1 -15 -8
0 -9 -5 -2 -18 5 -10 6 -24 1 -32 -4 -7 -5 -22 -1 -34 5 -11 5 -34 1 -52 -4
-18 -4 -38 1 -45 4 -7 4 -20 -1 -30 -5 -9 -7 -19 -4 -22 9 -9 10 -71 2 -89 -5
-11 -5 -18 1 -18 5 0 6 -14 1 -35 -4 -19 -5 -35 -1 -35 10 0 8 -31 -3 -48 -4
-6 -3 -12 1 -12 10 0 9 -83 -1 -99 -4 -6 -3 -11 2 -11 6 0 7 -14 2 -34 -4 -19
-4 -40 1 -47 4 -7 4 -20 0 -28 -5 -9 -5 -25 -1 -36 4 -11 4 -30 -1 -42 -5 -12
-5 -25 0 -27 9 -6 8 -36 -2 -53 -4 -6 -3 -14 2 -17 8 -6 6 -60 -4 -76 -3 -5
-1 -11 3 -14 10 -6 9 -36 -1 -53 -4 -6 -3 -14 2 -17 8 -6 6 -60 -4 -76 -3 -5
-1 -11 3 -14 10 -6 9 -36 -1 -53 -4 -6 -3 -14 2 -17 8 -6 6 -60 -4 -76 -3 -5
-1 -11 3 -14 10 -6 9 -36 -1 -53 -4 -6 -4 -14 1 -17 9 -5 7 -89 -2 -105 -4 -6
-3 -11 2 -11 6 0 7 -14 2 -35 -4 -19 -5 -35 -1 -35 10 0 8 -31 -3 -48 -4 -6
-3 -12 1 -12 10 0 9 -83 -1 -99 -4 -6 -3 -11 2 -11 6 0 7 -14 2 -34 -4 -19 -4
-40 1 -47 4 -7 4 -20 -1 -30 -5 -9 -7 -19 -4 -22 9 -9 10 -71 2 -89 -5 -11 -5
-18 1 -18 5 0 6 -14 1 -35 -4 -19 -5 -35 -1 -35 10 0 8 -31 -3 -48 -4 -6 -4
-12 1 -12 4 0 8 -16 8 -35 0 -19 -3 -35 -6 -35 -4 0 -28 82 -45 158 -4 19 -19
77 -38 147 -2 6 -6 24 -10 40 -24 96 -122 343 -175 440 -69 124 -96 170 -103
173 -4 2 -8 9 -8 16 0 7 -10 26 -22 43 -13 17 -30 41 -38 53 -44 65 -144 189
-220 274 -71 78 -90 97 -176 171 -76 66 -97 83 -168 138 -16 12 -40 32 -55 44
-14 13 -32 23 -38 23 -7 0 -13 4 -13 8 0 5 -12 15 -27 23 -16 8 -30 16 -33 19
-27 27 -243 138 -376 194 -157 65 -396 137 -539 162 -11 1 -32 6 -47 9 -50 9
-75 13 -134 20 -33 4 -70 9 -84 11 -71 11 -187 21 -375 30 -55 3 -265 5 -467
6 -386 1 -392 2 -350 44 9 10 16 20 16 23 -2 7 -1 9 22 76 16 46 17 119 19
820 0 424 4 780 7 793 11 38 18 43 40 30 11 -7 29 -18 40 -24z m5915 -3205
c62 -24 132 -87 168 -151 14 -27 23 -48 20 -48 -4 0 -3 -6 2 -12 12 -20 15
-38 17 -115 2 -40 -1 -73 -6 -73 -4 0 -7 -3 -6 -7 7 -25 -38 -116 -80 -161
-93 -101 -69 -96 -527 -99 -431 -2 -479 2 -522 49 -62 68 -70 125 -58 400 6
145 21 179 100 225 14 8 137 11 430 11 384 1 413 -1 462 -19z m-5137 -4 c63
-3 133 -8 155 -11 107 -13 306 -64 333 -86 6 -6 12 -8 12 -4 0 6 42 -16 128
-67 28 -17 52 -35 52 -39 0 -4 5 -8 11 -8 23 0 160 -150 218 -239 34 -51 61
-99 61 -105 0 -7 5 -17 12 -24 6 -6 13 -17 14 -24 1 -7 14 -39 28 -70 14 -32
24 -58 21 -58 -2 0 3 -16 11 -35 22 -54 45 -164 62 -300 8 -56 10 -480 3 -480
-1 0 -4 -25 -6 -55 -4 -51 -7 -74 -20 -162 -18 -122 -96 -357 -131 -399 -8 -8
-14 -19 -14 -23 0 -5 -21 -40 -47 -79 -87 -131 -217 -244 -370 -321 -29 -14
-53 -23 -53 -19 0 5 -4 3 -8 -2 -6 -9 -90 -40 -137 -50 -125 -28 -158 -34
-210 -41 -68 -8 -776 -10 -847 -2 -59 7 -120 41 -135 76 -33 74 -33 139 -33
2177 1 196 3 251 16 307 18 84 78 136 166 145 29 3 54 6 55 7 5 4 545 -3 653
-9z m5203 -1946 c32 -5 73 -19 90 -30 18 -10 41 -23 52 -28 21 -9 132 -121
120 -121 -3 0 0 -7 9 -15 43 -43 73 -210 54 -295 -30 -132 -163 -250 -300
-269 -96 -12 -949 -6 -983 8 -45 18 -82 65 -91 113 -4 24 -9 102 -11 173 -1
72 -3 135 -4 140 -1 23 11 172 17 200 10 50 42 92 86 114 40 19 58 20 472 21
268 0 453 -4 489 -11z"/>
</g>
</svg>
